<?xml version="1.0" standalone="no"?>
<!DOCTYPE svg PUBLIC "-//W3C//DTD SVG 20010904//EN"
 "http://www.w3.org/TR/2001/REC-SVG-20010904/DTD/svg10.dtd">
<svg version="1.0" xmlns="http://www.w3.org/2000/svg"
 width="700.000000pt" height="700.000000pt" viewBox="0 0 700.000000 700.000000"
 preserveAspectRatio="xMidYMid meet">
<metadata>
Created by potrace 1.14, written by Peter Selinger 2001-2017
</metadata>
<g transform="translate(0.000000,700.000000) scale(0.100000,-0.100000)"
fill="#000000" stroke="none">
<path d="M0 3500 l0 -3500 3500 0 3500 0 0 3500 0 3500 -3500 0 -3500 0 0
-3500z m2762 1762 l33 -32 3 -134 c5 -206 -12 -226 -198 -226 -101 0 -111 -2
-106 -17 70 -220 783 -2468 822 -2590 l55 -173 165 0 c241 0 254 -11 254 -217
0 -132 -8 -155 -59 -190 l-34 -23 -562 0 -562 0 -34 23 c-52 35 -59 58 -59
195 0 132 10 170 53 194 14 9 83 15 203 18 l182 5 -69 225 c-38 124 -74 242
-79 263 l-11 37 -603 0 -603 0 -78 -252 c-43 -139 -80 -259 -83 -266 -3 -9 35
-12 169 -12 188 0 207 -5 243 -53 19 -26 21 -42 21 -161 0 -149 -9 -176 -70
-202 -50 -21 -1119 -21 -1169 0 -60 25 -66 44 -66 201 0 209 7 215 252 215
l163 0 444 1378 c244 757 446 1383 449 1390 3 9 -26 12 -123 12 -196 0 -215
20 -215 217 0 132 8 155 59 190 l35 23 573 -2 573 -3 32 -33z m1671 24 c59
-24 67 -48 67 -205 l0 -141 -29 -32 -29 -33 -186 -3 c-136 -2 -186 -6 -185
-15 0 -7 35 -124 77 -262 l77 -250 604 0 604 0 73 235 c40 129 76 247 79 263
l7 27 -172 0 c-252 0 -260 7 -260 220 l0 130 34 38 34 37 574 3 574 2 35 -23
c18 -12 39 -34 46 -47 19 -37 17 -253 -2 -294 -27 -56 -43 -61 -234 -66 l-173
-5 -447 -1385 -447 -1385 130 -5 c198 -8 206 -15 206 -208 0 -152 -10 -185
-65 -208 -51 -21 -1119 -21 -1170 0 -56 24 -69 55 -74 179 -4 124 6 172 45
208 24 22 34 24 145 27 65 2 119 7 119 10 0 4 -196 629 -437 1389 l-438 1383
-165 0 c-146 0 -169 2 -197 20 -52 31 -58 52 -58 195 0 147 10 175 68 200 47
21 1122 22 1170 1z"/>
<path d="M1920 3809 c-129 -419 -236 -768 -238 -775 -3 -12 77 -14 472 -14
262 0 476 3 476 8 1 14 -465 1542 -470 1542 -3 0 -111 -343 -240 -761z"/>
<path d="M4354 3923 c3 -10 109 -360 236 -778 127 -417 232 -760 233 -762 2
-1 111 348 244 777 l240 780 -479 0 c-452 0 -479 -1 -474 -17z"/>
</g>
</svg>
